<svg width="15" height="14" viewBox="0 0 15 14" fill="none" xmlns="http://www.w3.org/2000/svg">
<path d="M6.53506 7.90057C7.047 8.37818 7.74121 8.64648 8.46506 8.64648C9.1889 8.64648 9.88312 8.37818 10.3951 7.90057L12.3257 6.09923C12.8376 5.62141 13.1252 4.97335 13.1252 4.29761C13.1252 3.62187 12.8376 2.9738 12.3257 2.49598C11.8137 2.01816 11.1194 1.74973 10.3954 1.74973C9.67136 1.74973 8.97701 2.01816 8.46506 2.49598L7.50006 3.39665" stroke="black" stroke-width="2" stroke-linecap="round" stroke-linejoin="round"/>
<path d="M8.46509 6.09928C7.95315 5.62167 7.25893 5.35337 6.53509 5.35337C5.81124 5.35337 5.11703 5.62167 4.60509 6.09928L2.67446 7.90062C2.16251 8.37844 1.8749 9.0265 1.8749 9.70224C1.8749 10.378 2.16251 11.026 2.67446 11.5039C3.18641 11.9817 3.88077 12.2501 4.60478 12.2501C5.32878 12.2501 6.02314 11.9817 6.53509 11.5039L7.50009 10.6032" stroke="black" stroke-width="2" stroke-linecap="round" stroke-linejoin="round"/>
</svg>
